<mxfile host="app.diagrams.net" modified="2024-02-29T22:53:25.716Z" agent="Mozilla/5.0 (Windows NT 10.0; Win64; x64; rv:109.0) Gecko/20100101 Firefox/115.0" version="24.0.0" etag="YP0JfwIW0sS6DDSoVnzn" type="github">
  <diagram name="Page-1" id="Kji9ceN6dXcRWhYT_e0i">
    <mxGraphModel>
      <root>
        <mxCell id="0" />
        <mxCell id="1" parent="0" />
      </root>
    </mxGraphModel>
  </diagram>
</mxfile>
